<?xml version="1.0" standalone="no"?>
<!DOCTYPE svg PUBLIC "-//W3C//DTD SVG 20010904//EN"
 "http://www.w3.org/TR/2001/REC-SVG-20010904/DTD/svg10.dtd">
<svg version="1.0" xmlns="http://www.w3.org/2000/svg"
 width="1200.000000pt" height="974.000000pt" viewBox="0 0 1200.000000 974.000000"
 preserveAspectRatio="xMidYMid meet">

<g transform="translate(0.000000,974.000000) scale(0.100000,-0.100000)"
fill="#000000" stroke="none">
<path d="M1 9288 c1 -296 5 -434 10 -398 5 30 9 91 8 135 0 115 9 291 22 432
6 67 9 132 6 144 -4 15 -1 23 12 26 22 6 39 35 46 81 l5 32 -55 0 -55 0 1
-452z"/>
<path d="M11756 9728 c4 -7 15 -22 25 -33 35 -40 59 -141 70 -288 5 -78 16
-225 24 -327 8 -102 20 -268 25 -370 9 -166 32 -538 60 -985 18 -299 20 -370
13 -465 -8 -91 -9 -95 -31 -93 -13 2 -44 25 -70 51 -86 88 -144 119 -177 94
-5 -4 -27 -28 -48 -55 -21 -26 -53 -58 -70 -71 l-32 -24 -837 -6 c-537 -3
-838 -2 -838 4 0 6 5 10 11 10 6 0 9 6 6 13 -2 6 -9 11 -15 10 -17 -4 -3 24
52 107 28 41 60 97 71 125 39 91 123 258 184 365 33 58 74 134 91 170 17 36
37 76 45 90 9 14 29 54 46 90 81 171 215 409 266 475 15 18 93 153 93 160 0 3
13 25 29 48 55 81 79 149 62 175 -17 27 -92 30 -510 21 -432 -10 -849 -11
-1901 -7 -322 2 -711 0 -865 -5 -154 -4 -586 -10 -960 -13 -1554 -12 -3356
-31 -3745 -38 -151 -3 -491 -8 -755 -11 -621 -7 -926 -15 -947 -27 -10 -5 -18
-16 -18 -25 0 -18 79 -164 180 -333 38 -63 80 -136 94 -161 14 -26 62 -111
108 -190 46 -79 94 -164 107 -188 13 -24 51 -87 85 -141 33 -54 74 -122 91
-152 16 -29 41 -73 55 -98 33 -58 72 -126 128 -220 58 -99 57 -98 90 -155 50
-89 56 -99 85 -148 42 -69 37 -74 -85 -77 -57 -1 -130 -3 -163 -5 -210 -9
-524 -16 -958 -21 -568 -6 -523 -12 -606 86 -23 27 -50 50 -60 50 -18 0 -251
-220 -251 -238 0 -19 162 -170 212 -197 41 -22 52 -25 59 -14 5 8 9 19 9 24 1
18 70 86 108 105 34 17 77 19 562 24 289 3 703 9 920 12 l395 6 20 -32 c30
-48 35 -56 99 -165 32 -55 73 -123 91 -151 18 -28 45 -75 60 -105 15 -30 33
-61 40 -69 7 -8 27 -42 45 -74 17 -33 48 -85 68 -115 20 -31 52 -86 72 -122
19 -36 48 -83 63 -105 15 -21 78 -124 139 -229 61 -104 127 -215 147 -245 20
-30 42 -64 48 -75 104 -181 182 -319 201 -353 12 -24 42 -72 67 -107 25 -34
45 -65 45 -68 0 -4 22 -39 49 -79 27 -40 65 -102 83 -138 18 -36 60 -105 93
-155 33 -49 64 -99 70 -110 21 -37 78 -129 112 -182 18 -28 33 -55 33 -60 0
-5 30 -57 67 -116 38 -58 86 -136 108 -172 22 -37 50 -82 63 -101 12 -20 46
-79 74 -132 28 -53 71 -125 95 -158 24 -34 43 -64 43 -66 0 -7 95 -172 134
-233 18 -27 45 -75 61 -105 15 -30 38 -66 50 -80 12 -14 30 -43 40 -65 10 -22
28 -53 40 -70 13 -16 44 -68 70 -115 26 -47 51 -87 55 -90 4 -3 20 -27 34 -55
37 -68 86 -152 116 -200 38 -60 48 -76 71 -120 12 -22 32 -54 45 -72 13 -17
24 -35 24 -40 0 -4 18 -34 40 -67 22 -32 40 -62 40 -67 0 -4 14 -28 30 -52 17
-25 30 -51 30 -58 0 -7 8 -22 19 -33 18 -20 131 -211 131 -222 0 -2 20 -35 44
-72 82 -126 117 -183 140 -230 42 -84 128 -237 142 -253 8 -8 14 -21 14 -27 0
-6 11 -23 24 -39 13 -15 41 -62 63 -103 22 -41 54 -97 71 -125 68 -111 82
-134 136 -233 31 -56 56 -111 56 -122 0 -45 58 -37 83 12 10 18 31 56 48 83
18 28 57 104 88 170 30 66 71 147 89 180 91 160 137 247 182 338 47 95 133
263 140 272 5 6 32 55 60 110 97 185 177 332 200 365 9 14 32 57 51 97 19 40
41 73 49 75 8 2 15 10 15 18 0 16 95 212 130 270 12 19 51 91 87 160 60 115
176 327 205 375 7 11 22 40 34 65 26 54 43 86 112 209 80 144 143 260 180 331
50 97 157 291 177 320 10 14 37 63 62 110 64 123 130 243 138 255 10 14 57 98
93 165 123 233 157 296 204 377 29 50 53 93 53 96 0 3 25 48 55 101 30 52 55
98 55 102 0 4 6 15 14 23 8 9 29 45 47 81 17 36 40 76 49 90 9 14 33 54 52 90
46 85 108 192 118 205 4 6 34 62 66 125 32 63 65 126 74 140 10 14 34 57 55
95 21 39 54 95 74 125 20 30 49 82 65 115 16 33 39 73 52 88 13 16 24 37 24
46 0 10 8 29 18 42 10 13 33 53 50 89 32 65 38 75 78 140 12 19 35 64 50 100
16 36 45 92 66 125 21 33 38 65 38 71 0 6 13 29 29 51 l29 40 323 7 c178 4
362 9 409 10 47 2 307 7 578 11 l493 8 27 -25 c15 -14 43 -34 62 -44 19 -10
50 -31 68 -46 18 -16 37 -28 43 -28 26 0 89 44 144 99 73 75 105 82 105 22 0
-22 5 -43 10 -46 7 -4 10 465 10 1399 l0 1406 -126 0 c-97 0 -124 -3 -118 -12z
m-1341 -926 c18 -10 18 -11 3 -12 -10 0 -18 -5 -18 -11 0 -5 5 -7 10 -4 24 15
6 -31 -52 -132 -33 -59 -81 -148 -106 -198 -25 -49 -60 -112 -77 -140 -38 -60
-106 -187 -125 -234 -12 -31 -71 -141 -140 -266 -40 -73 -129 -236 -184 -340
-27 -49 -54 -97 -61 -105 -6 -8 -38 -61 -70 -117 l-58 -101 -61 -5 c-57 -4
-704 -12 -1041 -12 -144 0 -150 1 -148 20 1 11 9 65 18 120 10 61 13 122 9
157 -5 47 -3 59 10 64 17 7 60 -25 97 -72 41 -52 119 -114 144 -114 15 0 32
11 45 30 12 17 27 30 33 30 7 0 32 -16 56 -35 61 -48 103 -58 191 -44 94 16
144 50 214 147 50 69 55 81 50 112 -4 19 -12 38 -18 43 -13 9 -83 -1 -111 -16
-22 -11 -105 -75 -120 -92 -18 -21 -53 -35 -84 -35 -40 0 -57 33 -66 130 -8
94 0 116 70 183 56 53 87 70 156 81 52 9 89 41 89 77 0 16 -9 57 -19 91 -11
35 -23 84 -26 110 -8 65 -64 127 -120 135 -58 7 -96 -27 -124 -110 -51 -153
-71 -207 -90 -244 -28 -57 -91 -278 -91 -323 0 -32 -4 -39 -22 -42 -38 -5
-101 31 -133 75 -38 52 -95 172 -95 199 0 11 16 55 35 98 19 43 35 82 35 88 0
6 9 26 19 44 43 73 82 200 83 271 1 84 -8 94 -61 79 -40 -13 -80 -51 -128
-123 -21 -31 -30 -38 -47 -33 -28 9 -26 4 -31 70 -2 33 -6 73 -10 89 -3 17 -8
40 -11 51 -4 25 -54 49 -81 40 -10 -3 -26 -21 -36 -38 -15 -29 -17 -75 -18
-413 -2 -506 -3 -500 5 -580 4 -38 10 -115 14 -170 5 -55 14 -110 20 -122 9
-17 9 -23 0 -29 -30 -19 -945 -37 -3378 -68 -135 -2 -255 -1 -267 1 -29 6 -36
31 -27 99 6 51 9 56 43 72 28 13 45 34 75 90 22 41 65 102 97 138 66 75 75
106 84 300 7 123 -9 249 -37 293 -30 49 -145 69 -207 36 -37 -19 -98 -90 -113
-131 -8 -24 -20 -35 -39 -39 -43 -10 -53 -28 -46 -93 4 -31 3 -113 0 -180 -6
-120 -7 -124 -31 -133 -14 -5 -38 -21 -55 -35 -16 -14 -32 -23 -35 -20 -3 3
-4 216 -3 474 1 465 1 469 -20 496 -15 19 -29 26 -48 24 -33 -4 -51 -40 -55
-111 -7 -108 -26 -201 -74 -357 -11 -36 -23 -84 -27 -108 -4 -24 -18 -71 -31
-104 -13 -33 -26 -77 -30 -97 -6 -35 -47 -127 -64 -145 -5 -4 -16 6 -24 23
-14 27 -16 63 -12 259 3 125 8 257 11 293 5 48 3 82 -9 121 -18 62 -27 73 -71
82 -51 10 -57 -1 -61 -125 -3 -63 -9 -136 -14 -162 -13 -64 -13 -393 1 -476
25 -158 52 -243 83 -263 38 -25 126 16 161 76 13 22 28 61 34 86 5 25 18 63
27 85 9 22 27 67 39 99 37 101 47 86 42 -60 -2 -71 -7 -153 -10 -183 -8 -68 2
-81 62 -81 76 0 94 8 88 40 -3 15 -3 37 0 48 10 38 39 8 58 -60 9 -35 26 -76
37 -91 17 -23 20 -40 16 -97 -2 -38 -8 -74 -13 -79 -6 -6 -340 -13 -840 -18
-896 -8 -1043 -7 -1062 9 -13 10 -59 86 -128 213 -22 40 -45 79 -51 86 -14 18
-143 238 -178 304 -15 28 -40 70 -56 95 -26 40 -46 74 -136 230 -14 25 -38 65
-54 91 -15 25 -31 56 -35 70 -4 13 -22 44 -40 69 -18 25 -38 57 -46 72 -8 14
-30 55 -50 90 -20 34 -48 86 -63 113 -15 28 -34 57 -41 65 -24 27 -107 191
-100 198 4 4 82 8 173 9 270 4 1518 23 1752 28 118 2 1021 7 2005 10 1501 5
2404 12 2412 19 1 0 595 1 1320 0 967 0 1324 -4 1338 -12z m-5794 -899 c8
-186 -31 -355 -101 -443 -17 -21 -21 -23 -30 -10 -10 16 -14 341 -4 375 7 23
101 105 121 105 7 0 13 -12 14 -27z m4755 -939 c30 -4 51 -11 50 -18 -6 -30
-22 -66 -55 -121 -20 -33 -44 -73 -53 -90 -74 -134 -134 -245 -147 -270 -8
-16 -53 -100 -101 -185 -48 -85 -114 -207 -147 -270 -33 -63 -103 -192 -156
-287 -54 -95 -116 -208 -139 -252 -111 -209 -158 -295 -176 -323 -25 -39 -85
-144 -121 -213 -17 -33 -35 -67 -40 -75 -18 -29 -119 -216 -147 -270 -15 -30
-40 -73 -54 -95 -15 -22 -45 -76 -67 -120 -22 -44 -50 -96 -61 -115 -12 -19
-30 -51 -40 -70 -10 -19 -38 -71 -61 -115 -24 -44 -48 -86 -54 -94 -12 -15
-72 -127 -111 -209 -14 -29 -34 -65 -44 -80 -11 -15 -43 -72 -72 -127 -29 -55
-57 -105 -61 -111 -5 -6 -21 -33 -35 -59 -14 -26 -37 -69 -51 -94 -14 -25 -48
-89 -76 -141 -27 -52 -64 -120 -83 -150 -18 -31 -38 -67 -43 -80 -6 -14 -28
-56 -50 -95 -21 -38 -65 -119 -96 -180 -31 -60 -60 -114 -65 -120 -4 -5 -29
-50 -55 -100 -25 -49 -60 -112 -76 -140 -17 -27 -44 -79 -61 -115 -18 -36 -60
-116 -95 -178 -35 -62 -63 -115 -63 -118 0 -3 -4 -10 -10 -17 -5 -7 -29 -50
-53 -97 -80 -156 -140 -265 -159 -290 -11 -13 -32 -51 -47 -85 -15 -33 -40
-74 -55 -91 -14 -18 -26 -38 -26 -45 0 -8 -13 -36 -29 -64 -16 -27 -46 -84
-66 -125 -21 -41 -41 -77 -44 -80 -4 -3 -20 -31 -36 -64 -45 -89 -57 -86 -115
26 -29 55 -69 121 -90 145 -5 7 -10 15 -10 18 0 3 -27 52 -61 108 -80 136 -81
137 -104 172 -26 39 -41 64 -57 95 -7 14 -25 44 -40 67 -15 23 -28 46 -28 51
0 5 -8 20 -19 33 -10 13 -28 41 -40 62 -55 99 -173 300 -220 375 -28 46 -51
85 -51 88 0 2 -26 47 -57 99 -32 52 -65 108 -74 125 -9 17 -29 48 -43 70 -14
22 -26 42 -26 46 0 3 -60 106 -134 227 -73 122 -146 245 -162 274 -52 92 -161
276 -203 343 -23 36 -50 83 -61 105 -11 22 -40 72 -64 110 -25 39 -68 108 -96
155 -28 47 -78 128 -110 180 -33 52 -64 105 -69 117 -9 20 -27 50 -111 193
-38 64 -251 414 -319 523 -23 38 -52 86 -64 107 -12 20 -51 85 -87 144 -36 59
-74 122 -85 141 -11 18 -35 58 -53 87 -18 29 -49 80 -69 113 -77 129 -166 282
-185 315 -11 19 -40 67 -64 106 -24 39 -44 75 -44 81 0 6 -6 16 -13 22 -8 6
-31 44 -52 83 -21 40 -58 107 -83 148 -56 94 -249 406 -272 440 -21 32 -128
217 -159 276 -17 32 -21 48 -13 56 19 19 1724 44 1757 26 10 -6 15 -25 15 -59
0 -88 48 -143 104 -118 33 15 46 49 46 119 0 54 2 60 23 64 12 3 303 8 647 11
344 4 742 8 885 10 143 2 557 6 920 10 363 3 795 10 960 15 165 5 413 12 550
15 138 3 303 8 367 11 65 3 162 0 215 -6 80 -10 114 -9 183 3 106 18 104 18
166 11z"/>
<path d="M6525 8616 c-29 -8 -50 -25 -77 -61 -44 -58 -56 -93 -99 -285 -39
-176 -42 -322 -8 -377 43 -70 152 -113 286 -113 66 0 85 -21 77 -89 -19 -175
-49 -263 -104 -302 -44 -31 -72 -33 -113 -5 -66 45 -117 29 -131 -39 -9 -41
24 -89 87 -128 111 -68 262 -19 330 108 9 17 33 81 53 144 32 103 36 122 32
206 -3 86 -5 96 -33 132 -38 48 -141 100 -215 109 -72 8 -134 36 -155 68 -19
29 -16 80 10 177 8 30 23 83 33 119 l18 65 40 -4 c95 -9 97 -9 121 34 26 47
30 119 9 180 -25 71 -71 89 -161 61z"/>
<path d="M5246 8444 c-29 -28 -10 -141 28 -166 6 -4 28 -8 49 -8 29 0 46 7 68
29 16 16 29 35 29 43 0 18 -118 118 -140 118 -10 0 -26 -7 -34 -16z"/>
<path d="M7770 8202 c-66 -44 -85 -95 -82 -212 2 -52 4 -225 6 -383 4 -321 8
-339 64 -362 50 -21 79 -19 118 11 48 37 88 124 125 271 27 105 32 148 32 238
1 171 -14 357 -30 381 -7 11 -37 33 -66 47 -61 31 -129 35 -167 9z m105 -521
c-13 -94 -30 -165 -42 -168 -8 -3 -8 7 1 39 8 24 12 58 11 76 -1 18 2 35 7 38
4 3 5 10 1 17 -9 15 -21 -19 -23 -68 -1 -22 -5 -49 -10 -60 -16 -37 -11 84 6
134 13 41 19 48 36 43 17 -4 19 -10 13 -51z"/>
<path d="M5641 8164 c-21 -27 -32 -61 -48 -143 l-8 -45 -60 2 c-33 1 -65 -1
-72 -5 -8 -6 -14 -82 -19 -248 -11 -386 -11 -405 11 -450 36 -71 112 -67 149
8 16 33 17 44 6 81 -16 58 9 198 59 321 16 39 20 45 21 25 l1 -25 10 23 c5 13
6 29 3 35 -5 8 -3 9 4 2 12 -11 29 -154 38 -315 8 -159 31 -223 81 -228 63 -6
97 39 94 127 -2 99 -55 439 -91 590 -11 47 -26 106 -31 131 -22 93 -31 110
-59 125 -42 22 -66 19 -89 -11z"/>
<path d="M7363 8148 c-18 -18 -46 -67 -64 -108 -48 -116 -62 -124 -73 -44 -3
25 -15 59 -27 75 -17 24 -27 29 -62 29 -24 0 -52 -6 -63 -14 -22 -16 -47 -68
-64 -133 -6 -24 -16 -43 -23 -43 -46 0 -61 -59 -74 -295 -8 -149 -8 -396 1
-430 18 -71 120 -11 131 76 3 19 10 81 17 139 11 93 13 100 18 60 l6 -45 11
65 10 65 2 -80 c2 -88 13 -151 31 -169 14 -14 107 -11 126 5 8 6 14 24 14 38
0 15 11 54 24 87 12 33 29 91 35 130 18 97 22 109 31 94 4 -6 6 -33 4 -58 -3
-35 -2 -42 5 -27 7 14 10 15 10 5 1 -12 3 -12 10 -2 15 24 23 -17 26 -125 3
-126 16 -153 73 -153 29 0 45 7 67 30 l29 30 -12 72 c-36 217 -42 266 -51 413
-8 137 -30 290 -42 299 -2 1 -17 12 -33 24 -39 30 -57 28 -93 -10z m6 -462
c-9 -8 -10 -5 -5 14 3 14 7 36 8 50 1 14 3 8 5 -14 3 -22 -1 -43 -8 -50z m41
29 c0 -8 -2 -15 -4 -15 -2 0 -6 7 -10 15 -3 8 -1 15 4 15 6 0 10 -7 10 -15z
m5 -85 c7 -23 -2 -43 -16 -35 -12 8 -12 55 0 55 5 0 12 -9 16 -20z"/>
<path d="M5229 8059 c-19 -19 -21 -28 -15 -73 4 -28 9 -202 12 -386 l5 -335
26 -27 c26 -27 65 -36 89 -20 30 20 46 105 25 128 -24 24 -51 376 -43 570 5
129 5 131 -19 147 -32 23 -55 21 -80 -4z"/>
<path d="M8041 8068 c0 -9 -4 -25 -7 -35 -5 -14 -4 -15 5 -7 7 7 11 22 8 35
-2 13 -5 16 -6 7z"/>
<path d="M8060 7910 c-4 -34 2 -85 11 -88 5 -2 5 -11 -1 -22 -10 -19 -3 -77
10 -85 10 -6 3 157 -9 186 -6 14 -10 18 -11 9z"/>
<path d="M6880 7686 c0 -9 5 -16 10 -16 6 0 10 4 10 9 0 6 -4 13 -10 16 -5 3
-10 -1 -10 -9z"/>
<path d="M8051 7681 c-12 -8 -12 -12 -2 -25 8 -9 10 -24 6 -38 -5 -15 -4 -20
3 -13 12 13 25 85 15 85 -4 0 -14 -4 -22 -9z"/>
<path d="M6877 7583 c-3 -16 -1 -32 4 -37 5 -6 9 4 9 27 0 44 -6 48 -13 10z"/>
<path d="M8326 7454 c-4 -9 -4 -19 -1 -22 3 -3 5 0 5 6 0 6 7 9 16 5 11 -4 15
-2 12 7 -7 21 -25 23 -32 4z"/>
<path d="M4211 7364 c0 -11 3 -14 6 -6 3 7 2 16 -1 19 -3 4 -6 -2 -5 -13z"/>
<path d="M7080 7370 c0 -6 7 -10 15 -10 8 0 15 2 15 4 0 2 -7 6 -15 10 -8 3
-15 1 -15 -4z"/>
<path d="M7515 6505 c-283 -25 -798 -38 -1052 -25 -128 7 -238 8 -245 3 -14
-9 -511 -13 -1658 -13 -411 0 -775 -5 -840 -11 -103 -9 -117 -12 -137 -35 -22
-23 -22 -27 -8 -60 8 -19 24 -47 35 -61 11 -14 20 -31 21 -37 0 -6 18 -36 39
-66 21 -30 55 -86 75 -125 21 -38 45 -81 55 -95 10 -14 31 -50 47 -80 26 -49
53 -95 129 -229 11 -20 36 -63 54 -96 18 -33 52 -91 76 -130 23 -38 49 -87 58
-108 9 -21 29 -55 45 -75 16 -21 54 -86 86 -147 32 -60 61 -115 67 -121 5 -7
20 -40 33 -74 26 -67 66 -135 126 -215 21 -27 54 -81 74 -120 20 -38 53 -97
73 -130 21 -33 53 -89 71 -125 18 -36 39 -72 46 -80 8 -8 23 -35 34 -60 11
-25 45 -85 75 -135 31 -49 71 -121 90 -160 38 -75 89 -163 179 -312 31 -51 65
-110 76 -130 66 -127 80 -153 109 -197 18 -28 32 -56 32 -63 0 -8 11 -31 25
-51 14 -20 25 -40 25 -45 0 -5 15 -32 34 -60 19 -29 59 -101 90 -161 31 -60
67 -123 80 -140 13 -17 47 -74 76 -126 28 -52 70 -126 92 -165 22 -38 62 -112
89 -163 27 -51 57 -105 68 -120 10 -15 55 -99 100 -187 80 -155 108 -195 137
-195 21 0 55 44 77 97 10 27 24 57 30 68 6 11 54 106 107 210 106 207 211 410
241 465 5 8 25 49 46 90 42 86 129 238 149 260 7 8 20 38 29 65 10 28 30 66
45 85 27 34 160 297 160 316 0 17 124 254 183 352 31 51 57 96 57 100 0 4 14
27 30 51 17 24 30 54 30 65 0 12 17 46 37 76 43 64 194 366 213 425 7 22 17
45 22 51 5 7 50 94 102 195 250 495 361 706 382 732 13 16 24 34 24 40 0 7 21
48 46 92 50 87 148 278 188 365 14 30 34 69 43 85 10 17 37 64 61 105 23 41
54 93 67 115 14 22 30 51 35 65 6 14 18 40 28 58 13 24 14 37 6 50 -25 39 -51
42 -431 47 -202 3 -406 7 -453 10 -47 2 -152 -3 -235 -10z m887 -136 c21 -5
38 -15 37 -22 0 -7 -18 -46 -39 -87 -46 -88 -174 -345 -220 -443 -17 -38 -44
-87 -60 -110 -15 -23 -30 -54 -34 -69 -3 -14 -27 -62 -52 -105 -49 -81 -87
-150 -121 -218 -11 -22 -60 -120 -109 -217 -49 -98 -115 -228 -146 -290 -31
-62 -93 -187 -138 -278 -100 -202 -134 -267 -160 -302 -11 -15 -20 -31 -20
-36 0 -12 -54 -117 -88 -172 -16 -25 -34 -60 -40 -79 -7 -19 -19 -42 -26 -50
-19 -22 -76 -126 -76 -140 0 -7 -16 -35 -35 -64 -19 -28 -35 -55 -35 -60 0 -5
-13 -28 -30 -52 -16 -24 -54 -99 -84 -168 -29 -69 -65 -140 -79 -159 -28 -37
-136 -238 -197 -366 -22 -46 -48 -96 -58 -110 -11 -15 -56 -98 -101 -186 -99
-190 -90 -172 -137 -271 -21 -44 -46 -91 -55 -105 -9 -14 -19 -37 -23 -52 -10
-45 -68 -131 -78 -116 -6 10 -10 10 -17 -1 -12 -19 -38 9 -87 99 -20 36 -52
91 -70 122 -19 31 -41 74 -48 96 -8 22 -35 73 -60 115 -25 42 -46 82 -46 89
-1 7 -14 29 -30 48 -17 19 -30 41 -30 48 0 8 -13 31 -30 52 -16 21 -30 44 -30
51 0 18 -89 190 -111 214 -10 11 -37 56 -59 100 -23 44 -48 87 -55 95 -7 8
-22 33 -34 55 -12 22 -37 67 -56 100 -19 33 -34 66 -35 72 0 7 -18 42 -40 78
-22 36 -40 76 -40 90 0 13 -4 26 -9 30 -20 11 -141 196 -175 265 -20 39 -45
84 -56 100 -14 20 -19 37 -14 54 3 15 2 26 -3 26 -12 0 -90 103 -106 139 -7
14 -24 44 -39 65 -16 21 -28 45 -28 51 0 7 -18 42 -40 76 -22 35 -45 74 -50
87 -25 55 -32 70 -58 113 -15 26 -42 68 -59 95 -18 26 -33 56 -33 66 0 11 -19
44 -42 75 -43 56 -73 105 -124 198 -15 28 -38 64 -53 81 -28 33 -54 77 -81
134 -9 19 -24 41 -33 49 -10 7 -17 21 -17 31 0 24 -24 80 -48 110 -10 14 -29
43 -41 65 -12 22 -34 63 -50 90 -16 28 -39 69 -50 93 -11 24 -29 55 -41 69
-11 14 -20 33 -20 41 0 13 -72 118 -90 132 -4 3 -17 27 -29 55 -12 27 -28 56
-36 65 -7 8 -48 81 -89 163 -53 101 -73 149 -64 152 32 11 1385 23 1648 15 96
-3 200 -2 230 3 30 4 354 8 720 8 366 0 742 4 835 8 279 11 1185 12 1227 0z"/>
<path d="M5988 6123 c-14 -16 -40 -68 -58 -118 -55 -149 -62 -392 -15 -525 13
-36 34 -96 48 -135 26 -73 30 -112 28 -256 -1 -69 -5 -92 -20 -110 -11 -13
-22 -21 -26 -17 -12 12 -35 150 -35 211 0 32 -7 73 -14 92 -16 36 -54 62 -79
52 -17 -6 -77 -113 -77 -136 0 -9 -7 -29 -16 -46 -75 -141 -75 -305 -1 -465
20 -44 27 -103 14 -116 -3 -4 -18 1 -32 10 -15 10 -40 16 -58 14 -29 -3 -33
-7 -52 -68 -11 -37 -30 -79 -41 -95 -12 -17 -33 -64 -46 -105 -21 -62 -25 -91
-23 -165 5 -193 23 -441 34 -468 6 -16 11 -42 11 -58 0 -37 79 -207 108 -233
12 -11 22 -25 22 -33 0 -16 59 -76 130 -132 73 -57 99 -54 117 14 15 59 17
138 4 163 -5 9 -19 51 -31 92 -12 41 -28 87 -36 102 -13 25 -20 88 -9 88 3 0
14 -9 25 -20 23 -23 57 -25 84 -5 18 14 18 19 6 69 -8 36 -11 84 -7 143 4 48
7 92 7 97 0 5 8 2 17 -5 15 -12 16 -12 9 6 -14 36 -12 50 11 53 30 4 41 -20
64 -141 12 -61 29 -116 43 -137 12 -19 25 -43 29 -53 11 -30 29 -15 68 54 42
73 59 160 53 274 -2 39 0 83 3 100 l6 30 33 -39 c50 -58 50 -53 -11 -376 -25
-131 -7 -200 52 -200 23 0 24 -3 18 -32 -10 -46 -52 -173 -65 -199 -10 -18 -8
-25 16 -50 15 -16 33 -29 40 -29 23 0 177 83 213 115 20 17 53 42 73 54 42 25
128 118 128 138 0 7 11 34 24 60 42 82 56 123 56 158 0 19 4 35 9 35 5 0 7 10
3 22 -3 14 -1 19 6 14 11 -7 16 6 26 65 4 21 13 50 21 65 7 16 16 63 19 104 5
76 23 155 26 115 0 -15 5 -11 15 14 17 39 19 71 5 71 -5 0 -10 5 -10 11 0 5 4
8 10 4 5 -3 17 6 26 20 24 37 23 216 -1 255 -10 17 -25 74 -35 138 -5 30 -15
61 -23 70 -14 16 -18 31 -33 115 -3 17 -8 39 -11 47 -3 8 -5 29 -4 47 1 17 -7
62 -18 100 -11 37 -19 77 -18 87 1 12 -9 26 -26 35 -28 16 -29 15 -63 -23 -19
-22 -39 -56 -44 -75 -6 -20 -17 -47 -25 -61 l-14 -25 -2 30 c-1 25 -3 21 -13
-20 l-13 -50 0 50 c0 28 6 64 13 80 8 21 9 46 3 84 -4 30 -6 58 -3 62 6 10
-17 88 -44 149 -12 27 -43 64 -74 91 -70 60 -74 62 -98 49 -31 -17 -39 -49
-24 -94 8 -21 14 -72 14 -112 0 -110 -18 -100 -79 44 -21 49 -55 115 -75 145
-20 30 -36 60 -36 68 0 8 -9 29 -20 47 -11 18 -20 43 -20 57 0 20 -54 172 -80
225 -4 9 -11 31 -14 50 -18 89 -31 136 -41 150 -7 8 -15 23 -18 33 -9 25 -29
21 -59 -10z m661 -1403 c0 -10 -3 -8 -9 5 -12 27 -12 43 0 25 5 -8 9 -22 9
-30z m307 -397 c-10 -10 -19 5 -10 18 6 11 8 11 12 0 2 -7 1 -15 -2 -18z"/>
<path d="M6405 5271 c-3 -5 -1 -12 5 -16 5 -3 10 1 10 9 0 18 -6 21 -15 7z"/>
<path d="M5950 4995 c0 -8 2 -15 4 -15 2 0 6 7 10 15 3 8 1 15 -4 15 -6 0 -10
-7 -10 -15z"/>
<path d="M6255 4087 c0 -13 9 -32 19 -43 19 -19 19 -18 12 11 -4 17 -13 36
-20 43 -9 10 -12 8 -11 -11z"/>
<path d="M5992 3975 c0 -16 2 -22 5 -12 2 9 2 23 0 30 -3 6 -5 -1 -5 -18z"/>
<path d="M5633 9653 c-22 -8 -14 -23 11 -23 13 0 29 7 36 15 10 13 9 15 -11
14 -13 0 -30 -3 -36 -6z"/>
<path d="M0 8670 c0 -40 2 -71 5 -68 7 7 9 128 1 135 -3 3 -6 -27 -6 -67z"/>
<path d="M11918 7183 c6 -2 18 -2 25 0 6 3 1 5 -13 5 -14 0 -19 -2 -12 -5z"/>
<path d="M9825 6487 c-33 -30 -37 -38 -31 -63 5 -16 9 -45 9 -64 2 -34 1 -35
-31 -32 -19 1 -51 -2 -73 -8 -53 -15 -61 -47 -24 -100 20 -29 25 -43 17 -53
-6 -7 -12 -33 -14 -57 l-3 -45 -55 -6 c-72 -7 -86 -15 -102 -51 -11 -25 -17
-29 -42 -24 -16 4 -37 13 -46 21 -39 35 -130 3 -151 -53 -8 -21 -6 -29 13 -48
13 -12 39 -45 58 -73 19 -28 50 -70 68 -92 17 -23 32 -51 32 -63 0 -31 -47
-72 -91 -80 -69 -12 -112 -86 -111 -192 l1 -72 -42 -11 c-23 -6 -50 -17 -60
-25 -16 -12 -16 -16 -1 -51 16 -39 47 -86 77 -117 22 -23 22 -45 -1 -57 -9 -5
-23 -30 -31 -55 -15 -52 -36 -59 -78 -26 -59 46 -159 0 -183 -85 -16 -56 -6
-160 20 -210 10 -20 22 -50 25 -66 6 -27 5 -29 -25 -29 -22 0 -44 10 -67 30
-47 41 -66 38 -104 -16 -31 -46 -31 -46 -15 -88 21 -55 21 -56 -13 -56 -34 0
-96 -62 -87 -87 3 -8 6 -17 6 -19 0 -3 11 -9 24 -14 17 -6 36 -33 62 -87 42
-87 89 -162 112 -180 9 -7 35 -13 59 -13 37 0 44 4 58 30 21 42 20 52 -24 133
-21 40 -43 88 -49 107 -5 19 -13 42 -16 51 -5 12 2 20 26 29 57 23 88 50 88
76 0 32 21 39 59 20 16 -9 50 -16 75 -16 39 0 48 4 68 33 18 25 23 45 23 95 0
59 2 63 25 69 52 12 70 41 71 112 1 36 4 56 6 43 4 -18 7 -21 18 -12 19 16 54
-8 136 -92 61 -62 70 -68 108 -68 69 0 100 52 68 111 -19 37 -69 111 -96 144
-13 16 -32 48 -42 70 -10 22 -24 48 -31 57 -11 15 -7 22 27 51 l40 35 -1 108
c-1 102 -3 113 -34 179 -19 39 -35 72 -37 75 -2 3 3 14 11 25 13 18 15 17 50
-19 33 -35 39 -38 77 -33 48 6 109 45 109 69 0 10 -9 41 -20 70 -30 78 -27 86
25 94 78 11 132 104 111 189 -12 49 2 72 47 78 50 7 71 -11 64 -58 -5 -35 37
-172 60 -197 36 -40 119 -12 149 49 26 54 31 192 10 275 -20 82 -56 174 -94
240 -26 45 -29 60 -25 104 6 60 -14 89 -54 80 -15 -4 -40 2 -70 19 -62 32 -73
32 -118 -8z m-432 -1142 c-3 -9 -8 -14 -10 -11 -3 3 -2 9 2 15 9 16 15 13 8
-4z m35 -26 c-3 -20 -5 -19 -9 9 -3 20 -2 29 4 23 5 -5 7 -19 5 -32z m-8 -79
c-9 -17 -14 -19 -26 -9 -16 13 -19 39 -4 39 5 0 7 -7 4 -15 -4 -8 -1 -15 5
-15 6 0 14 12 18 28 5 18 8 22 11 10 2 -9 -2 -26 -8 -38z m-50 -371 c0 -6 -4
-7 -10 -4 -5 3 -10 11 -10 16 0 6 5 7 10 4 6 -3 10 -11 10 -16z"/>
<path d="M9786 6351 c-4 -7 -5 -15 -2 -18 9 -9 19 4 14 18 -4 11 -6 11 -12 0z"/>
<path d="M8551 4284 c-20 -25 -20 -25 0 -70 25 -60 25 -65 -16 -104 -43 -42
-65 -107 -59 -180 5 -67 -17 -121 -61 -146 -63 -37 -124 -96 -131 -128 -14
-64 -6 -145 20 -202 14 -31 23 -60 20 -65 -11 -18 -51 -8 -84 21 -43 36 -58
37 -91 2 -55 -57 -61 -88 -24 -136 25 -34 24 -46 -5 -46 -17 0 -80 -59 -80
-76 0 -5 18 -28 40 -49 22 -21 40 -43 40 -48 0 -4 9 -27 19 -50 30 -66 51
-119 51 -127 0 -4 -19 -10 -42 -13 -35 -5 -44 -2 -59 18 -40 50 -102 40 -145
-25 -27 -40 -27 -40 -9 -79 20 -45 14 -64 -20 -55 -44 11 -135 -67 -135 -116
0 -7 32 -53 70 -104 39 -51 70 -98 70 -104 0 -5 14 -22 32 -37 31 -27 41 -28
104 -9 19 5 22 -2 37 -63 19 -77 71 -183 103 -214 17 -16 30 -19 52 -14 41 9
59 31 76 98 20 78 6 221 -38 382 -9 32 -16 68 -16 79 0 11 -16 48 -35 83 -23
41 -35 77 -35 102 l0 38 48 -5 c41 -4 52 0 80 24 37 33 38 39 13 96 -43 95
-71 170 -71 188 0 11 18 37 40 59 22 22 40 46 40 53 0 8 11 24 23 36 23 22 25
22 62 6 56 -23 101 -11 150 40 49 50 66 103 56 172 -7 51 -48 142 -81 179 -31
36 -43 65 -30 80 26 31 230 -114 230 -164 0 -42 43 -110 78 -122 122 -41 239
90 245 277 2 85 -9 110 -66 147 -47 31 -99 35 -152 13 -37 -16 -45 -13 -45 19
0 35 -35 124 -59 149 -13 14 -36 30 -52 36 -26 11 -29 17 -29 59 0 39 -6 52
-35 84 -40 43 -66 47 -94 11z m349 -535 c-7 -11 -14 -19 -16 -16 -7 7 7 37 17
37 6 0 5 -9 -1 -21z m-5 -39 c3 -5 1 -10 -4 -10 -6 0 -11 5 -11 10 0 6 2 10 4
10 3 0 8 -4 11 -10z m35 0 c0 -5 -4 -10 -10 -10 -5 0 -10 5 -10 10 0 6 5 10
10 10 6 0 10 -4 10 -10z m-434 -175 c9 -37 0 -40 -13 -5 -6 17 -7 30 -2 30 5
0 11 -11 15 -25z m-24 -30 c9 -20 9 -20 -6 -1 -9 11 -16 27 -15 35 0 14 1 14
6 1 3 -8 10 -24 15 -35z m-512 -795 c0 -5 -4 -10 -10 -10 -5 0 -10 5 -10 10 0
6 5 10 10 10 6 0 10 -4 10 -10z m258 -385 c-3 -3 -9 2 -12 12 -6 14 -5 15 5 6
7 -7 10 -15 7 -18z m16 -74 c-3 -3 -9 1 -14 9 -7 11 -10 8 -11 -15 l-1 -30 -7
30 c-4 20 -2 31 6 33 7 2 13 11 14 20 0 9 5 4 10 -12 4 -17 6 -32 3 -35z m3
-47 c-3 -3 -12 -4 -19 -1 -8 3 -5 6 6 6 11 1 17 -2 13 -5z"/>
<path d="M7565 2553 c-55 -10 -67 -15 -88 -39 -12 -14 -29 -40 -37 -57 -8 -17
-25 -34 -38 -37 -13 -3 -31 -17 -40 -32 -14 -24 -15 -34 -4 -73 11 -42 10 -50
-12 -93 -74 -146 -74 -294 0 -380 19 -23 47 -43 63 -47 37 -8 97 17 106 44 3
12 11 21 16 21 5 0 29 -42 53 -92 42 -92 100 -168 127 -168 29 0 83 38 101 70
16 31 16 36 3 57 -8 12 -15 27 -15 33 0 5 -16 31 -36 56 -74 98 -82 133 -44
204 17 31 54 295 51 365 -1 23 -19 92 -31 117 -17 36 -110 62 -175 51z m62
-165 c10 -18 14 -201 3 -218 -14 -22 -35 -5 -73 60 -44 73 -45 92 -11 137 26
34 66 44 81 21z m-157 -388 c0 -5 -5 -10 -11 -10 -5 0 -7 5 -4 10 3 6 8 10 11
10 2 0 4 -4 4 -10z m29 -55 c0 -5 -4 -3 -9 5 -5 8 -9 22 -9 30 0 16 17 -16 18
-35z m-27 -14 c2 -17 1 -28 -4 -25 -8 5 -12 54 -4 54 2 0 6 -13 8 -29z m29
-24 c-10 -9 -11 -8 -5 6 3 10 9 15 12 12 3 -3 0 -11 -7 -18z"/>
<path d="M7576 2381 c-7 -11 22 -23 35 -15 5 3 7 10 4 15 -8 12 -32 12 -39 0z"/>
<path d="M7590 2206 c0 -2 7 -9 15 -16 12 -10 15 -10 15 4 0 9 -7 16 -15 16
-8 0 -15 -2 -15 -4z"/>
</g>
</svg>
